<svg width="558" height="425" viewBox="0 0 558 425" fill="none" xmlns="http://www.w3.org/2000/svg">
<g clip-path="url(#clip0_6858_143588)">
<g clip-path="url(#clip1_6858_143588)">
<path fill-rule="evenodd" clip-rule="evenodd" d="M491.394 124.472H543.496V171.522H491.394V124.472ZM490.447 172.469V219.519H438.344V172.469H490.447ZM490.447 267.517V220.467H438.344V267.517H490.447ZM490.447 268.464V315.514H438.344V268.464H490.447ZM490.447 363.511V316.461H438.344V363.511H490.447ZM490.447 364.459V411.509H438.344V364.459H490.447ZM490.447 459.506V412.456H438.344V459.506H490.447ZM490.447 460.453V507.503H438.344V460.453H490.447ZM490.447 555.5V508.45H438.344V555.5H490.447ZM491.394 555.5H543.496V508.45H491.394V555.5ZM543.97 555.974H544.443V123.999H543.97V123.525H13.4737V123.999H13V555.974H13.4737V556.448H543.97V555.974ZM13.9473 555.5V508.45H66.0496V555.5H13.9473ZM66.9969 555.5V508.45H119.099V555.5H66.9969ZM120.047 555.5V508.45H172.149V555.5H120.047ZM173.096 555.5V508.45H225.198V555.5H173.096ZM226.146 555.5V508.45H278.248V555.5H226.146ZM279.195 555.5V508.45H331.298V555.5H279.195ZM332.245 555.5V508.45H384.347V555.5H332.245ZM385.295 555.5V508.45H437.397V555.5H385.295ZM437.397 460.453V507.503H385.295V460.453H437.397ZM384.347 460.453V507.503H332.245V460.453H384.347ZM331.298 460.453V507.503H279.195V460.453H331.298ZM278.248 460.453V507.503H226.146V460.453H278.248ZM225.198 460.453V507.503H173.096V460.453H225.198ZM172.149 460.453V507.503H120.047V460.453H172.149ZM119.099 460.453V507.503H66.9969V460.453H119.099ZM66.0496 460.453V507.503H13.9473V460.453H66.0496ZM491.394 507.503H543.496V460.453H491.394V507.503ZM437.397 459.506V412.456H385.295V459.506H437.397ZM384.347 459.506V412.456H332.245V459.506H384.347ZM331.298 459.506V412.456H279.195V459.506H331.298ZM278.248 459.506V412.456H226.146V459.506H278.248ZM225.198 459.506V412.456H173.096V459.506H225.198ZM172.149 459.506V412.456H120.047V459.506H172.149ZM119.099 459.506V412.456H66.9969V459.506H119.099ZM66.0496 459.506V412.456H13.9473V459.506H66.0496ZM543.496 459.506H491.394V412.456H543.496V459.506ZM437.397 364.459V411.509H385.295V364.459H437.397ZM384.347 364.459V411.509H332.245V364.459H384.347ZM331.298 364.459V411.509H279.195V364.459H331.298ZM278.248 364.459V411.509H226.146V364.459H278.248ZM225.198 364.459V411.509H173.096V364.459H225.198ZM172.149 364.459V411.509H120.047V364.459H172.149ZM119.099 364.459V411.509H66.9969V364.459H119.099ZM66.0496 364.459V411.509H13.9473V364.459H66.0496ZM491.394 411.509H543.496V364.459H491.394V411.509ZM437.397 363.511V316.461H385.295V363.511H437.397ZM384.347 363.511V316.461H332.245V363.511H384.347ZM331.298 363.511V316.461H279.195V363.511H331.298ZM278.248 363.511V316.461H226.146V363.511H278.248ZM225.198 363.511V316.461H173.096V363.511H225.198ZM172.149 363.511V316.461H120.047V363.511H172.149ZM119.099 363.511V316.461H66.9969V363.511H119.099ZM66.0496 363.511V316.461H13.9473V363.511H66.0496ZM543.496 363.511H491.394V316.461H543.496V363.511ZM437.397 268.464V315.514H385.295V268.464H437.397ZM384.347 268.464V315.514H332.245V268.464H384.347ZM331.298 268.464V315.514H279.195V268.464H331.298ZM278.248 268.464V315.514H226.146V268.464H278.248ZM225.198 268.464V315.514H173.096V268.464H225.198ZM172.149 268.464V315.514H120.047V268.464H172.149ZM119.099 268.464V315.514H66.9969V268.464H119.099ZM66.0496 268.464V315.514H13.9473V268.464H66.0496ZM491.394 315.514H543.496V268.464H491.394V315.514ZM437.397 267.517V220.467H385.295V267.517H437.397ZM384.347 267.517V220.467H332.245V267.517H384.347ZM331.298 267.517V220.467H279.195V267.517H331.298ZM278.248 267.517V220.467H226.146V267.517H278.248ZM225.198 267.517V220.467H173.096V267.517H225.198ZM172.149 267.517V220.467H120.047V267.517H172.149ZM119.099 267.517V220.467H66.9969V267.517H119.099ZM66.0496 267.517V220.467H13.9473V267.517H66.0496ZM543.496 267.517H491.394V220.467H543.496V267.517ZM437.397 172.469V219.519H385.295V172.469H437.397ZM384.347 172.469V219.519H332.245V172.469H384.347ZM331.298 172.469V219.519H279.195V172.469H331.298ZM278.248 172.469V219.519H226.146V172.469H278.248ZM225.198 172.469V219.519H173.096V172.469H225.198ZM172.149 172.469V219.519H120.047V172.469H172.149ZM119.099 172.469V219.519H66.9969V172.469H119.099ZM66.0496 172.469V219.519H13.9473V172.469H66.0496ZM491.394 219.519H543.496V172.469H491.394V219.519ZM490.447 171.522V124.472H438.344V171.522H490.447ZM437.397 171.522V124.472H385.295V171.522H437.397ZM384.347 171.522V124.472H332.245V171.522H384.347ZM331.298 171.522V124.472H279.195V171.522H331.298ZM278.248 171.522V124.472H226.146V171.522H278.248ZM225.198 171.522V124.472H173.096V171.522H225.198ZM172.149 171.522V124.472H120.047V171.522H172.149ZM119.099 171.522V124.472H66.9969V171.522H119.099ZM66.0496 171.522V124.472H13.9473V171.522H66.0496Z" fill="url(#paint0_radial_6858_143588)"/>
<rect x="0.99342" y="101.717" width="556.011" height="453.562" rx="11.4385" stroke="url(#paint1_radial_6858_143588)" stroke-width="0.994652"/>
</g>
<g filter="url(#filter0_bd_6858_143588)">
<rect x="301" y="189" width="152" height="154" rx="12.1058" fill="#22262F" shape-rendering="crispEdges"/>
<path d="M315.959 214V205.273H319.07C319.746 205.273 320.307 205.389 320.753 205.622C321.202 205.855 321.537 206.178 321.759 206.589C321.98 206.999 322.091 207.472 322.091 208.009C322.091 208.543 321.979 209.013 321.754 209.419C321.533 209.822 321.197 210.136 320.749 210.361C320.303 210.585 319.741 210.697 319.065 210.697H316.709V209.564H318.946C319.372 209.564 319.719 209.503 319.986 209.381C320.256 209.259 320.453 209.081 320.578 208.848C320.703 208.615 320.766 208.335 320.766 208.009C320.766 207.679 320.702 207.393 320.574 207.152C320.449 206.911 320.251 206.726 319.982 206.598C319.714 206.467 319.364 206.402 318.929 206.402H317.276V214H315.959ZM320.267 210.062L322.423 214H320.923L318.81 210.062H320.267ZM325.596 214.145C325.181 214.145 324.806 214.068 324.471 213.915C324.136 213.759 323.87 213.533 323.674 213.237C323.481 212.942 323.384 212.58 323.384 212.151C323.384 211.781 323.455 211.477 323.597 211.239C323.739 211 323.931 210.811 324.172 210.672C324.414 210.533 324.684 210.428 324.982 210.357C325.28 210.286 325.584 210.232 325.894 210.195C326.286 210.149 326.604 210.112 326.849 210.084C327.093 210.053 327.27 210.003 327.381 209.935C327.492 209.866 327.547 209.756 327.547 209.602V209.572C327.547 209.2 327.442 208.912 327.232 208.707C327.025 208.503 326.715 208.401 326.303 208.401C325.874 208.401 325.536 208.496 325.289 208.686C325.045 208.874 324.876 209.082 324.782 209.312L323.584 209.04C323.726 208.642 323.934 208.321 324.207 208.077C324.482 207.83 324.799 207.651 325.157 207.54C325.515 207.426 325.891 207.369 326.286 207.369C326.547 207.369 326.824 207.401 327.117 207.463C327.413 207.523 327.688 207.634 327.944 207.795C328.202 207.957 328.414 208.189 328.579 208.49C328.743 208.788 328.826 209.176 328.826 209.653V214H327.582V213.105H327.53C327.448 213.27 327.324 213.432 327.16 213.591C326.995 213.75 326.783 213.882 326.525 213.987C326.266 214.092 325.957 214.145 325.596 214.145ZM325.873 213.122C326.225 213.122 326.526 213.053 326.776 212.913C327.029 212.774 327.221 212.592 327.351 212.368C327.485 212.141 327.552 211.898 327.552 211.639V210.795C327.506 210.841 327.418 210.884 327.287 210.923C327.16 210.96 327.013 210.993 326.849 211.021C326.684 211.047 326.523 211.071 326.367 211.094C326.211 211.114 326.08 211.131 325.975 211.145C325.728 211.176 325.502 211.229 325.297 211.303C325.096 211.376 324.934 211.483 324.812 211.622C324.692 211.759 324.633 211.94 324.633 212.168C324.633 212.483 324.749 212.722 324.982 212.884C325.215 213.043 325.512 213.122 325.873 213.122ZM333.678 207.455V208.477H330.103V207.455H333.678ZM331.062 205.886H332.336V212.078C332.336 212.325 332.373 212.511 332.447 212.636C332.521 212.759 332.616 212.842 332.732 212.888C332.852 212.93 332.981 212.952 333.12 212.952C333.222 212.952 333.312 212.945 333.389 212.93C333.465 212.916 333.525 212.905 333.568 212.896L333.798 213.949C333.724 213.977 333.619 214.006 333.482 214.034C333.346 214.065 333.175 214.082 332.971 214.085C332.636 214.091 332.323 214.031 332.033 213.906C331.744 213.781 331.509 213.588 331.33 213.327C331.151 213.065 331.062 212.737 331.062 212.342V205.886ZM335.188 214V207.455H336.462V214H335.188ZM335.831 206.445C335.61 206.445 335.419 206.371 335.26 206.223C335.104 206.072 335.026 205.893 335.026 205.686C335.026 205.476 335.104 205.297 335.26 205.149C335.419 204.999 335.61 204.923 335.831 204.923C336.053 204.923 336.242 204.999 336.398 205.149C336.557 205.297 336.637 205.476 336.637 205.686C336.637 205.893 336.557 206.072 336.398 206.223C336.242 206.371 336.053 206.445 335.831 206.445ZM339.55 210.114V214H338.276V207.455H339.499V208.52H339.58C339.731 208.173 339.966 207.895 340.287 207.685C340.611 207.474 341.019 207.369 341.51 207.369C341.956 207.369 342.347 207.463 342.682 207.651C343.018 207.835 343.277 208.111 343.462 208.477C343.647 208.844 343.739 209.297 343.739 209.837V214H342.465V209.99C342.465 209.516 342.341 209.145 342.094 208.878C341.847 208.608 341.508 208.473 341.076 208.473C340.78 208.473 340.518 208.537 340.287 208.665C340.06 208.793 339.88 208.98 339.746 209.227C339.616 209.472 339.55 209.767 339.55 210.114ZM348.292 216.591C347.772 216.591 347.325 216.523 346.95 216.386C346.578 216.25 346.274 216.07 346.038 215.845C345.802 215.621 345.626 215.375 345.51 215.108L346.605 214.656C346.681 214.781 346.784 214.913 346.912 215.053C347.042 215.195 347.218 215.315 347.44 215.415C347.664 215.514 347.953 215.564 348.305 215.564C348.788 215.564 349.187 215.446 349.502 215.21C349.818 214.977 349.975 214.605 349.975 214.094V212.807H349.895C349.818 212.946 349.707 213.101 349.562 213.271C349.42 213.442 349.224 213.589 348.974 213.714C348.724 213.839 348.399 213.902 347.998 213.902C347.481 213.902 347.015 213.781 346.6 213.54C346.189 213.295 345.862 212.936 345.62 212.462C345.382 211.984 345.262 211.398 345.262 210.702C345.262 210.006 345.38 209.409 345.616 208.912C345.855 208.415 346.181 208.034 346.596 207.77C347.011 207.503 347.481 207.369 348.007 207.369C348.413 207.369 348.741 207.438 348.991 207.574C349.241 207.707 349.436 207.864 349.575 208.043C349.717 208.222 349.826 208.379 349.903 208.516H349.997V207.455H351.245V214.145C351.245 214.707 351.115 215.169 350.853 215.53C350.592 215.891 350.238 216.158 349.792 216.331C349.349 216.504 348.849 216.591 348.292 216.591ZM348.279 212.845C348.646 212.845 348.956 212.76 349.208 212.589C349.464 212.416 349.657 212.169 349.788 211.848C349.922 211.524 349.988 211.136 349.988 210.685C349.988 210.244 349.923 209.857 349.792 209.521C349.662 209.186 349.47 208.925 349.217 208.737C348.964 208.547 348.652 208.452 348.279 208.452C347.896 208.452 347.576 208.551 347.321 208.75C347.065 208.946 346.872 209.213 346.741 209.551C346.613 209.889 346.549 210.267 346.549 210.685C346.549 211.114 346.615 211.49 346.745 211.814C346.876 212.138 347.069 212.391 347.325 212.572C347.583 212.754 347.902 212.845 348.279 212.845Z" fill="white"/>
<rect x="420.656" y="201" width="18.3429" height="18.3429" rx="9.17147" fill="#E3E5E8" fill-opacity="0.52"/>
<path d="M426.617 210.172L428.91 212.465L433.496 207.879" stroke="#15181E" stroke-width="1.5"/>
<path d="M324.684 258.9H329.22L339.048 285H334.584L332.532 279.276H321.192L319.176 285H315L324.684 258.9ZM322.416 275.82H331.272L326.808 263.364L322.416 275.82ZM349.282 258.9H353.818L363.646 285H359.182L357.13 279.276H345.79L343.774 285H339.598L349.282 258.9ZM347.014 275.82H355.87L351.406 263.364L347.014 275.82ZM373.881 258.9H378.417L388.245 285H383.781L381.729 279.276H370.389L368.373 285H364.197L373.881 258.9ZM371.613 275.82H380.469L376.005 263.364L371.613 275.82Z" fill="white"/>
<line x1="315" y1="305.5" x2="439" y2="305.5" stroke="#3F4550"/>
<path opacity="0.8" d="M315.437 321.215V320H321.82V321.215H319.348V328H317.91V321.215H315.437ZM323.998 328.121C323.618 328.121 323.276 328.053 322.971 327.918C322.669 327.78 322.429 327.577 322.252 327.309C322.078 327.04 321.991 326.71 321.991 326.316C321.991 325.978 322.053 325.698 322.178 325.477C322.303 325.255 322.474 325.078 322.69 324.945C322.906 324.812 323.149 324.712 323.42 324.645C323.694 324.574 323.976 324.523 324.268 324.492C324.62 324.456 324.905 324.423 325.123 324.395C325.342 324.363 325.501 324.316 325.6 324.254C325.702 324.189 325.752 324.089 325.752 323.953V323.93C325.752 323.635 325.665 323.408 325.491 323.246C325.316 323.085 325.065 323.004 324.737 323.004C324.39 323.004 324.116 323.079 323.913 323.23C323.712 323.382 323.577 323.56 323.506 323.766L322.186 323.578C322.29 323.214 322.462 322.909 322.702 322.664C322.941 322.417 323.234 322.232 323.58 322.109C323.927 321.984 324.31 321.922 324.729 321.922C325.018 321.922 325.306 321.956 325.592 322.023C325.879 322.091 326.14 322.203 326.377 322.359C326.614 322.513 326.804 322.723 326.948 322.988C327.093 323.254 327.166 323.586 327.166 323.984V328H325.807V327.176H325.76C325.674 327.342 325.553 327.499 325.397 327.645C325.243 327.788 325.049 327.904 324.815 327.992C324.583 328.078 324.311 328.121 323.998 328.121ZM324.366 327.082C324.649 327.082 324.896 327.026 325.104 326.914C325.312 326.799 325.472 326.648 325.584 326.461C325.699 326.273 325.756 326.069 325.756 325.848V325.141C325.712 325.177 325.636 325.211 325.53 325.242C325.426 325.273 325.308 325.301 325.178 325.324C325.048 325.348 324.919 325.368 324.791 325.387C324.664 325.405 324.553 325.421 324.459 325.434C324.248 325.462 324.06 325.509 323.893 325.574C323.726 325.639 323.595 325.73 323.498 325.848C323.402 325.962 323.354 326.111 323.354 326.293C323.354 326.553 323.449 326.75 323.639 326.883C323.829 327.016 324.071 327.082 324.366 327.082ZM328.688 328V322H330.059V323H330.122C330.231 322.654 330.419 322.387 330.684 322.199C330.953 322.009 331.259 321.914 331.602 321.914C331.68 321.914 331.768 321.918 331.864 321.926C331.963 321.931 332.045 321.94 332.11 321.953V323.254C332.05 323.233 331.955 323.215 331.825 323.199C331.697 323.181 331.574 323.172 331.454 323.172C331.196 323.172 330.964 323.228 330.759 323.34C330.555 323.449 330.395 323.602 330.278 323.797C330.161 323.992 330.102 324.217 330.102 324.473V328H328.688ZM335.512 330.375C335.004 330.375 334.568 330.306 334.203 330.168C333.839 330.033 333.546 329.85 333.324 329.621C333.103 329.392 332.949 329.138 332.863 328.859L334.137 328.551C334.194 328.668 334.278 328.784 334.387 328.898C334.496 329.016 334.643 329.112 334.828 329.188C335.016 329.266 335.251 329.305 335.535 329.305C335.936 329.305 336.268 329.207 336.531 329.012C336.794 328.819 336.926 328.501 336.926 328.059V326.922H336.856C336.783 327.068 336.676 327.217 336.535 327.371C336.397 327.525 336.214 327.654 335.985 327.758C335.758 327.862 335.473 327.914 335.129 327.914C334.668 327.914 334.25 327.806 333.875 327.59C333.503 327.371 333.206 327.046 332.985 326.613C332.766 326.178 332.656 325.634 332.656 324.98C332.656 324.322 332.766 323.766 332.985 323.312C333.206 322.857 333.504 322.512 333.879 322.277C334.254 322.04 334.672 321.922 335.133 321.922C335.485 321.922 335.774 321.982 336 322.102C336.229 322.219 336.412 322.361 336.547 322.527C336.682 322.691 336.785 322.846 336.856 322.992H336.934V322H338.328V328.098C338.328 328.611 338.206 329.035 337.961 329.371C337.716 329.707 337.382 329.958 336.957 330.125C336.533 330.292 336.051 330.375 335.512 330.375ZM335.524 326.805C335.823 326.805 336.078 326.732 336.289 326.586C336.5 326.44 336.66 326.23 336.77 325.957C336.879 325.684 336.934 325.355 336.934 324.973C336.934 324.595 336.879 324.264 336.77 323.98C336.663 323.697 336.504 323.477 336.293 323.32C336.085 323.161 335.828 323.082 335.524 323.082C335.209 323.082 334.946 323.164 334.735 323.328C334.524 323.492 334.365 323.717 334.258 324.004C334.151 324.288 334.098 324.611 334.098 324.973C334.098 325.34 334.151 325.661 334.258 325.938C334.367 326.211 334.528 326.424 334.738 326.578C334.952 326.729 335.214 326.805 335.524 326.805ZM342.534 328.117C341.932 328.117 341.413 327.992 340.975 327.742C340.54 327.49 340.206 327.133 339.971 326.672C339.737 326.208 339.62 325.663 339.62 325.035C339.62 324.418 339.737 323.876 339.971 323.41C340.208 322.941 340.539 322.577 340.963 322.316C341.388 322.053 341.887 321.922 342.46 321.922C342.829 321.922 343.178 321.982 343.506 322.102C343.837 322.219 344.129 322.401 344.381 322.648C344.637 322.896 344.837 323.211 344.983 323.594C345.129 323.974 345.202 324.427 345.202 324.953V325.387H340.284V324.434H343.846C343.844 324.163 343.785 323.922 343.671 323.711C343.556 323.497 343.396 323.329 343.19 323.207C342.987 323.085 342.75 323.023 342.479 323.023C342.19 323.023 341.936 323.094 341.717 323.234C341.499 323.372 341.328 323.555 341.206 323.781C341.086 324.005 341.025 324.251 341.022 324.52V325.352C341.022 325.701 341.086 326 341.213 326.25C341.341 326.497 341.519 326.687 341.749 326.82C341.978 326.951 342.246 327.016 342.553 327.016C342.759 327.016 342.945 326.987 343.112 326.93C343.279 326.87 343.423 326.783 343.546 326.668C343.668 326.553 343.76 326.411 343.823 326.242L345.143 326.391C345.06 326.74 344.901 327.044 344.667 327.305C344.435 327.562 344.138 327.763 343.776 327.906C343.414 328.047 343 328.117 342.534 328.117ZM349.494 322V323.094H346.045V322H349.494ZM346.896 320.562H348.311V326.195C348.311 326.385 348.339 326.531 348.396 326.633C348.456 326.732 348.535 326.799 348.631 326.836C348.727 326.872 348.834 326.891 348.951 326.891C349.04 326.891 349.12 326.884 349.193 326.871C349.269 326.858 349.326 326.846 349.365 326.836L349.604 327.941C349.528 327.967 349.42 327.996 349.279 328.027C349.141 328.059 348.972 328.077 348.771 328.082C348.417 328.092 348.098 328.039 347.814 327.922C347.531 327.802 347.305 327.617 347.139 327.367C346.975 327.117 346.894 326.805 346.896 326.43V320.562ZM355.117 320V328H353.668V320H355.117ZM356.786 328V320H359.786C360.401 320 360.917 320.107 361.333 320.32C361.752 320.534 362.069 320.833 362.282 321.219C362.499 321.602 362.607 322.048 362.607 322.559C362.607 323.072 362.497 323.517 362.279 323.895C362.062 324.27 361.743 324.56 361.321 324.766C360.9 324.969 360.381 325.07 359.767 325.07H357.63V323.867H359.571C359.931 323.867 360.225 323.818 360.454 323.719C360.683 323.617 360.853 323.47 360.962 323.277C361.074 323.082 361.13 322.842 361.13 322.559C361.13 322.275 361.074 322.033 360.962 321.832C360.85 321.629 360.68 321.475 360.45 321.371C360.221 321.264 359.926 321.211 359.564 321.211H358.236V328H356.786ZM360.919 324.375L362.9 328H361.282L359.337 324.375H360.919ZM364.041 328V320H367.041C367.655 320 368.171 320.107 368.588 320.32C369.007 320.534 369.323 320.833 369.537 321.219C369.753 321.602 369.861 322.048 369.861 322.559C369.861 323.072 369.752 323.517 369.533 323.895C369.317 324.27 368.998 324.56 368.576 324.766C368.154 324.969 367.636 325.07 367.021 325.07H364.884V323.867H366.826C367.185 323.867 367.479 323.818 367.709 323.719C367.938 323.617 368.107 323.47 368.216 323.277C368.328 323.082 368.384 322.842 368.384 322.559C368.384 322.275 368.328 322.033 368.216 321.832C368.104 321.629 367.934 321.475 367.705 321.371C367.476 321.264 367.18 321.211 366.818 321.211H365.49V328H364.041ZM368.173 324.375L370.154 328H368.537L366.591 324.375H368.173Z" fill="#E3E5E8" fill-opacity="0.52"/>
<path opacity="0.8" d="M415.488 319.891C415.871 319.893 416.243 319.961 416.605 320.094C416.97 320.224 417.298 320.438 417.59 320.734C417.882 321.029 418.113 321.423 418.285 321.918C418.457 322.413 418.543 323.025 418.543 323.754C418.546 324.441 418.473 325.056 418.324 325.598C418.178 326.137 417.969 326.592 417.695 326.965C417.422 327.337 417.092 327.621 416.707 327.816C416.322 328.012 415.888 328.109 415.406 328.109C414.901 328.109 414.453 328.01 414.062 327.812C413.674 327.615 413.361 327.344 413.121 327C412.882 326.656 412.734 326.263 412.68 325.82H414.105C414.178 326.138 414.327 326.391 414.551 326.578C414.777 326.763 415.063 326.855 415.406 326.855C415.961 326.855 416.388 326.615 416.688 326.133C416.987 325.651 417.137 324.982 417.137 324.125H417.082C416.954 324.354 416.789 324.552 416.586 324.719C416.383 324.883 416.152 325.009 415.895 325.098C415.639 325.186 415.368 325.23 415.082 325.23C414.613 325.23 414.191 325.118 413.816 324.895C413.444 324.671 413.148 324.363 412.93 323.973C412.714 323.582 412.604 323.135 412.602 322.633C412.602 322.112 412.721 321.645 412.961 321.23C413.203 320.814 413.54 320.486 413.973 320.246C414.405 320.004 414.91 319.885 415.488 319.891ZM415.492 321.063C415.211 321.063 414.957 321.132 414.73 321.27C414.507 321.405 414.329 321.59 414.199 321.824C414.072 322.056 414.008 322.315 414.008 322.602C414.01 322.885 414.074 323.143 414.199 323.375C414.327 323.607 414.5 323.79 414.719 323.926C414.94 324.061 415.193 324.129 415.477 324.129C415.688 324.129 415.884 324.089 416.066 324.008C416.249 323.927 416.408 323.815 416.543 323.672C416.681 323.526 416.788 323.361 416.863 323.176C416.941 322.991 416.979 322.796 416.977 322.59C416.977 322.316 416.911 322.064 416.781 321.832C416.654 321.6 416.478 321.414 416.254 321.273C416.033 321.133 415.779 321.063 415.492 321.063ZM420.519 328.086C420.282 328.086 420.079 328.003 419.91 327.836C419.74 327.669 419.657 327.466 419.66 327.227C419.657 326.992 419.74 326.792 419.91 326.625C420.079 326.458 420.282 326.375 420.519 326.375C420.748 326.375 420.947 326.458 421.117 326.625C421.288 326.792 421.376 326.992 421.378 327.227C421.376 327.385 421.334 327.53 421.253 327.66C421.175 327.79 421.071 327.895 420.941 327.973C420.813 328.048 420.673 328.086 420.519 328.086ZM425.568 328.152C424.925 328.152 424.373 327.99 423.912 327.664C423.454 327.336 423.101 326.863 422.853 326.246C422.609 325.626 422.486 324.88 422.486 324.008C422.489 323.135 422.612 322.393 422.857 321.781C423.105 321.167 423.457 320.698 423.916 320.375C424.377 320.052 424.928 319.891 425.568 319.891C426.209 319.891 426.76 320.052 427.221 320.375C427.681 320.698 428.034 321.167 428.279 321.781C428.526 322.396 428.65 323.138 428.65 324.008C428.65 324.883 428.526 325.63 428.279 326.25C428.034 326.867 427.681 327.339 427.221 327.664C426.762 327.99 426.211 328.152 425.568 328.152ZM425.568 326.93C426.068 326.93 426.463 326.684 426.752 326.191C427.043 325.697 427.189 324.969 427.189 324.008C427.189 323.372 427.123 322.839 426.99 322.406C426.857 321.974 426.67 321.648 426.428 321.43C426.185 321.208 425.899 321.098 425.568 321.098C425.071 321.098 424.678 321.345 424.388 321.84C424.099 322.332 423.954 323.055 423.951 324.008C423.948 324.646 424.012 325.182 424.142 325.617C424.275 326.052 424.463 326.38 424.705 326.602C424.947 326.82 425.235 326.93 425.568 326.93ZM434.325 326.5V326.078C434.325 325.768 434.39 325.483 434.521 325.223C434.654 324.962 434.846 324.753 435.099 324.594C435.351 324.435 435.657 324.355 436.017 324.355C436.387 324.355 436.696 324.435 436.946 324.594C437.196 324.75 437.385 324.958 437.513 325.219C437.643 325.479 437.708 325.766 437.708 326.078V326.5C437.708 326.81 437.643 327.095 437.513 327.355C437.383 327.616 437.191 327.826 436.939 327.984C436.689 328.143 436.381 328.223 436.017 328.223C435.652 328.223 435.344 328.143 435.091 327.984C434.838 327.826 434.647 327.616 434.517 327.355C434.389 327.095 434.325 326.81 434.325 326.5ZM435.345 326.078V326.5C435.345 326.706 435.394 326.895 435.493 327.066C435.592 327.238 435.767 327.324 436.017 327.324C436.269 327.324 436.443 327.24 436.536 327.07C436.633 326.898 436.681 326.708 436.681 326.5V326.078C436.681 325.87 436.635 325.68 436.544 325.508C436.453 325.333 436.277 325.246 436.017 325.246C435.772 325.246 435.599 325.333 435.497 325.508C435.396 325.68 435.345 325.87 435.345 326.078ZM430.259 321.922V321.5C430.259 321.187 430.325 320.901 430.458 320.641C430.591 320.38 430.784 320.172 431.036 320.016C431.289 319.857 431.595 319.777 431.954 319.777C432.321 319.777 432.63 319.857 432.88 320.016C433.133 320.172 433.323 320.38 433.45 320.641C433.578 320.901 433.642 321.187 433.642 321.5V321.922C433.642 322.234 433.577 322.521 433.446 322.781C433.319 323.039 433.129 323.246 432.876 323.402C432.624 323.559 432.316 323.637 431.954 323.637C431.587 323.637 431.277 323.559 431.025 323.402C430.775 323.246 430.585 323.038 430.454 322.777C430.324 322.517 430.259 322.232 430.259 321.922ZM431.286 321.5V321.922C431.286 322.13 431.335 322.32 431.431 322.492C431.53 322.661 431.704 322.746 431.954 322.746C432.204 322.746 432.376 322.661 432.47 322.492C432.566 322.32 432.614 322.13 432.614 321.922V321.5C432.614 321.292 432.569 321.102 432.478 320.93C432.387 320.755 432.212 320.668 431.954 320.668C431.707 320.668 431.534 320.755 431.435 320.93C431.336 321.104 431.286 321.294 431.286 321.5ZM430.704 328L436.204 320H437.181L431.681 328H430.704Z" fill="#E3E5E8" fill-opacity="0.52"/>
<rect x="300.5" y="188.5" width="153" height="155" rx="12.6058" stroke="white" stroke-opacity="0.03" shape-rendering="crispEdges"/>
</g>
<g filter="url(#filter1_bd_6858_143588)">
<rect x="465" y="189" width="152" height="154" rx="12.1058" fill="#22262F" shape-rendering="crispEdges"/>
<path d="M479.959 214V205.273H483.07C483.746 205.273 484.307 205.389 484.753 205.622C485.202 205.855 485.537 206.178 485.759 206.589C485.98 206.999 486.091 207.472 486.091 208.009C486.091 208.543 485.979 209.013 485.754 209.419C485.533 209.822 485.197 210.136 484.749 210.361C484.303 210.585 483.741 210.697 483.065 210.697H480.709V209.564H482.946C483.372 209.564 483.719 209.503 483.986 209.381C484.256 209.259 484.453 209.081 484.578 208.848C484.703 208.615 484.766 208.335 484.766 208.009C484.766 207.679 484.702 207.393 484.574 207.152C484.449 206.911 484.251 206.726 483.982 206.598C483.714 206.467 483.364 206.402 482.929 206.402H481.276V214H479.959ZM484.267 210.062L486.423 214H484.923L482.81 210.062H484.267ZM489.596 214.145C489.181 214.145 488.806 214.068 488.471 213.915C488.136 213.759 487.87 213.533 487.674 213.237C487.481 212.942 487.384 212.58 487.384 212.151C487.384 211.781 487.455 211.477 487.597 211.239C487.739 211 487.931 210.811 488.172 210.672C488.414 210.533 488.684 210.428 488.982 210.357C489.28 210.286 489.584 210.232 489.894 210.195C490.286 210.149 490.604 210.112 490.849 210.084C491.093 210.053 491.27 210.003 491.381 209.935C491.492 209.866 491.547 209.756 491.547 209.602V209.572C491.547 209.2 491.442 208.912 491.232 208.707C491.025 208.503 490.715 208.401 490.303 208.401C489.874 208.401 489.536 208.496 489.289 208.686C489.045 208.874 488.876 209.082 488.782 209.312L487.584 209.04C487.726 208.642 487.934 208.321 488.207 208.077C488.482 207.83 488.799 207.651 489.157 207.54C489.515 207.426 489.891 207.369 490.286 207.369C490.547 207.369 490.824 207.401 491.117 207.463C491.413 207.523 491.688 207.634 491.944 207.795C492.202 207.957 492.414 208.189 492.579 208.49C492.743 208.788 492.826 209.176 492.826 209.653V214H491.582V213.105H491.53C491.448 213.27 491.324 213.432 491.16 213.591C490.995 213.75 490.783 213.882 490.525 213.987C490.266 214.092 489.957 214.145 489.596 214.145ZM489.873 213.122C490.225 213.122 490.526 213.053 490.776 212.913C491.029 212.774 491.221 212.592 491.351 212.368C491.485 212.141 491.552 211.898 491.552 211.639V210.795C491.506 210.841 491.418 210.884 491.287 210.923C491.16 210.96 491.013 210.993 490.849 211.021C490.684 211.047 490.523 211.071 490.367 211.094C490.211 211.114 490.08 211.131 489.975 211.145C489.728 211.176 489.502 211.229 489.297 211.303C489.096 211.376 488.934 211.483 488.812 211.622C488.692 211.759 488.633 211.94 488.633 212.168C488.633 212.483 488.749 212.722 488.982 212.884C489.215 213.043 489.512 213.122 489.873 213.122ZM497.678 207.455V208.477H494.103V207.455H497.678ZM495.062 205.886H496.336V212.078C496.336 212.325 496.373 212.511 496.447 212.636C496.521 212.759 496.616 212.842 496.732 212.888C496.852 212.93 496.981 212.952 497.12 212.952C497.222 212.952 497.312 212.945 497.389 212.93C497.465 212.916 497.525 212.905 497.568 212.896L497.798 213.949C497.724 213.977 497.619 214.006 497.482 214.034C497.346 214.065 497.175 214.082 496.971 214.085C496.636 214.091 496.323 214.031 496.033 213.906C495.744 213.781 495.509 213.588 495.33 213.327C495.151 213.065 495.062 212.737 495.062 212.342V205.886ZM499.188 214V207.455H500.462V214H499.188ZM499.831 206.445C499.61 206.445 499.419 206.371 499.26 206.223C499.104 206.072 499.026 205.893 499.026 205.686C499.026 205.476 499.104 205.297 499.26 205.149C499.419 204.999 499.61 204.923 499.831 204.923C500.053 204.923 500.242 204.999 500.398 205.149C500.557 205.297 500.637 205.476 500.637 205.686C500.637 205.893 500.557 206.072 500.398 206.223C500.242 206.371 500.053 206.445 499.831 206.445ZM503.55 210.114V214H502.276V207.455H503.499V208.52H503.58C503.731 208.173 503.966 207.895 504.287 207.685C504.611 207.474 505.019 207.369 505.51 207.369C505.956 207.369 506.347 207.463 506.682 207.651C507.018 207.835 507.277 208.111 507.462 208.477C507.647 208.844 507.739 209.297 507.739 209.837V214H506.465V209.99C506.465 209.516 506.341 209.145 506.094 208.878C505.847 208.608 505.508 208.473 505.076 208.473C504.78 208.473 504.518 208.537 504.287 208.665C504.06 208.793 503.88 208.98 503.746 209.227C503.616 209.472 503.55 209.767 503.55 210.114ZM512.292 216.591C511.772 216.591 511.325 216.523 510.95 216.386C510.578 216.25 510.274 216.07 510.038 215.845C509.802 215.621 509.626 215.375 509.51 215.108L510.605 214.656C510.681 214.781 510.784 214.913 510.912 215.053C511.042 215.195 511.218 215.315 511.44 215.415C511.664 215.514 511.953 215.564 512.305 215.564C512.788 215.564 513.187 215.446 513.502 215.21C513.818 214.977 513.975 214.605 513.975 214.094V212.807H513.895C513.818 212.946 513.707 213.101 513.562 213.271C513.42 213.442 513.224 213.589 512.974 213.714C512.724 213.839 512.399 213.902 511.998 213.902C511.481 213.902 511.015 213.781 510.6 213.54C510.189 213.295 509.862 212.936 509.62 212.462C509.382 211.984 509.262 211.398 509.262 210.702C509.262 210.006 509.38 209.409 509.616 208.912C509.855 208.415 510.181 208.034 510.596 207.77C511.011 207.503 511.481 207.369 512.007 207.369C512.413 207.369 512.741 207.438 512.991 207.574C513.241 207.707 513.436 207.864 513.575 208.043C513.717 208.222 513.826 208.379 513.903 208.516H513.997V207.455H515.245V214.145C515.245 214.707 515.115 215.169 514.853 215.53C514.592 215.891 514.238 216.158 513.792 216.331C513.349 216.504 512.849 216.591 512.292 216.591ZM512.279 212.845C512.646 212.845 512.956 212.76 513.208 212.589C513.464 212.416 513.657 212.169 513.788 211.848C513.922 211.524 513.988 211.136 513.988 210.685C513.988 210.244 513.923 209.857 513.792 209.521C513.662 209.186 513.47 208.925 513.217 208.737C512.964 208.547 512.652 208.452 512.279 208.452C511.896 208.452 511.576 208.551 511.321 208.75C511.065 208.946 510.872 209.213 510.741 209.551C510.613 209.889 510.549 210.267 510.549 210.685C510.549 211.114 510.615 211.49 510.745 211.814C510.876 212.138 511.069 212.391 511.325 212.572C511.583 212.754 511.902 212.845 512.279 212.845Z" fill="white"/>
<path d="M503.948 276.504C503.66 277.944 503.18 279.228 502.508 280.356C501.86 281.46 501.044 282.396 500.06 283.164C499.1 283.908 497.984 284.484 496.712 284.892C495.464 285.276 494.12 285.468 492.68 285.468C490.784 285.468 489.092 285.144 487.604 284.496C486.14 283.824 484.892 282.888 483.86 281.688C482.852 280.488 482.072 279.06 481.52 277.404C480.992 275.748 480.728 273.912 480.728 271.896C480.728 269.856 481.004 268.008 481.556 266.352C482.132 264.696 482.948 263.28 484.004 262.104C485.084 260.928 486.368 260.028 487.856 259.404C489.368 258.756 491.06 258.432 492.932 258.432C494.324 258.432 495.62 258.636 496.82 259.044C498.044 259.428 499.124 260.004 500.06 260.772C501.02 261.54 501.824 262.476 502.472 263.58C503.12 264.684 503.576 265.956 503.84 267.396H499.88C499.472 265.692 498.656 264.348 497.432 263.364C496.232 262.356 494.672 261.852 492.752 261.852C491.648 261.852 490.616 262.068 489.656 262.5C488.72 262.932 487.892 263.58 487.172 264.444C486.476 265.284 485.924 266.328 485.516 267.576C485.132 268.824 484.94 270.264 484.94 271.896C484.94 273.504 485.132 274.944 485.516 276.216C485.924 277.464 486.476 278.52 487.172 279.384C487.868 280.248 488.696 280.908 489.656 281.364C490.616 281.82 491.66 282.048 492.788 282.048C494.732 282.048 496.316 281.556 497.54 280.572C498.764 279.588 499.58 278.232 499.988 276.504H503.948Z" fill="#E3E5E8" fill-opacity="0.52"/>
<line x1="479" y1="305.5" x2="603" y2="305.5" stroke="#3F4550"/>
<path opacity="0.8" d="M479.437 321.215V320H485.82V321.215H483.348V328H481.91V321.215H479.437ZM487.998 328.121C487.618 328.121 487.276 328.053 486.971 327.918C486.669 327.78 486.429 327.577 486.252 327.309C486.078 327.04 485.991 326.71 485.991 326.316C485.991 325.978 486.053 325.698 486.178 325.477C486.303 325.255 486.474 325.078 486.69 324.945C486.906 324.812 487.149 324.712 487.42 324.645C487.694 324.574 487.976 324.523 488.268 324.492C488.62 324.456 488.905 324.423 489.123 324.395C489.342 324.363 489.501 324.316 489.6 324.254C489.702 324.189 489.752 324.089 489.752 323.953V323.93C489.752 323.635 489.665 323.408 489.491 323.246C489.316 323.085 489.065 323.004 488.737 323.004C488.39 323.004 488.116 323.079 487.913 323.23C487.712 323.382 487.577 323.56 487.506 323.766L486.186 323.578C486.29 323.214 486.462 322.909 486.702 322.664C486.941 322.417 487.234 322.232 487.58 322.109C487.927 321.984 488.31 321.922 488.729 321.922C489.018 321.922 489.306 321.956 489.592 322.023C489.879 322.091 490.14 322.203 490.377 322.359C490.614 322.513 490.804 322.723 490.948 322.988C491.093 323.254 491.166 323.586 491.166 323.984V328H489.807V327.176H489.76C489.674 327.342 489.553 327.499 489.397 327.645C489.243 327.788 489.049 327.904 488.815 327.992C488.583 328.078 488.311 328.121 487.998 328.121ZM488.366 327.082C488.649 327.082 488.896 327.026 489.104 326.914C489.312 326.799 489.472 326.648 489.584 326.461C489.699 326.273 489.756 326.069 489.756 325.848V325.141C489.712 325.177 489.636 325.211 489.53 325.242C489.426 325.273 489.308 325.301 489.178 325.324C489.048 325.348 488.919 325.368 488.791 325.387C488.664 325.405 488.553 325.421 488.459 325.434C488.248 325.462 488.06 325.509 487.893 325.574C487.726 325.639 487.595 325.73 487.498 325.848C487.402 325.962 487.354 326.111 487.354 326.293C487.354 326.553 487.449 326.75 487.639 326.883C487.829 327.016 488.071 327.082 488.366 327.082ZM492.688 328V322H494.059V323H494.122C494.231 322.654 494.419 322.387 494.684 322.199C494.953 322.009 495.259 321.914 495.602 321.914C495.68 321.914 495.768 321.918 495.864 321.926C495.963 321.931 496.045 321.94 496.11 321.953V323.254C496.05 323.233 495.955 323.215 495.825 323.199C495.697 323.181 495.574 323.172 495.454 323.172C495.196 323.172 494.964 323.228 494.759 323.34C494.555 323.449 494.395 323.602 494.278 323.797C494.161 323.992 494.102 324.217 494.102 324.473V328H492.688ZM499.512 330.375C499.004 330.375 498.568 330.306 498.203 330.168C497.839 330.033 497.546 329.85 497.324 329.621C497.103 329.392 496.949 329.138 496.863 328.859L498.137 328.551C498.194 328.668 498.278 328.784 498.387 328.898C498.496 329.016 498.643 329.112 498.828 329.188C499.016 329.266 499.251 329.305 499.535 329.305C499.936 329.305 500.268 329.207 500.531 329.012C500.794 328.819 500.926 328.501 500.926 328.059V326.922H500.856C500.783 327.068 500.676 327.217 500.535 327.371C500.397 327.525 500.214 327.654 499.985 327.758C499.758 327.862 499.473 327.914 499.129 327.914C498.668 327.914 498.25 327.806 497.875 327.59C497.503 327.371 497.206 327.046 496.985 326.613C496.766 326.178 496.656 325.634 496.656 324.98C496.656 324.322 496.766 323.766 496.985 323.312C497.206 322.857 497.504 322.512 497.879 322.277C498.254 322.04 498.672 321.922 499.133 321.922C499.485 321.922 499.774 321.982 500 322.102C500.229 322.219 500.412 322.361 500.547 322.527C500.682 322.691 500.785 322.846 500.856 322.992H500.934V322H502.328V328.098C502.328 328.611 502.206 329.035 501.961 329.371C501.716 329.707 501.382 329.958 500.957 330.125C500.533 330.292 500.051 330.375 499.512 330.375ZM499.524 326.805C499.823 326.805 500.078 326.732 500.289 326.586C500.5 326.44 500.66 326.23 500.77 325.957C500.879 325.684 500.934 325.355 500.934 324.973C500.934 324.595 500.879 324.264 500.77 323.98C500.663 323.697 500.504 323.477 500.293 323.32C500.085 323.161 499.828 323.082 499.524 323.082C499.209 323.082 498.946 323.164 498.735 323.328C498.524 323.492 498.365 323.717 498.258 324.004C498.151 324.288 498.098 324.611 498.098 324.973C498.098 325.34 498.151 325.661 498.258 325.938C498.367 326.211 498.528 326.424 498.738 326.578C498.952 326.729 499.214 326.805 499.524 326.805ZM506.534 328.117C505.932 328.117 505.413 327.992 504.975 327.742C504.54 327.49 504.206 327.133 503.971 326.672C503.737 326.208 503.62 325.663 503.62 325.035C503.62 324.418 503.737 323.876 503.971 323.41C504.208 322.941 504.539 322.577 504.963 322.316C505.388 322.053 505.887 321.922 506.46 321.922C506.829 321.922 507.178 321.982 507.506 322.102C507.837 322.219 508.129 322.401 508.381 322.648C508.637 322.896 508.837 323.211 508.983 323.594C509.129 323.974 509.202 324.427 509.202 324.953V325.387H504.284V324.434H507.846C507.844 324.163 507.785 323.922 507.671 323.711C507.556 323.497 507.396 323.329 507.19 323.207C506.987 323.085 506.75 323.023 506.479 323.023C506.19 323.023 505.936 323.094 505.717 323.234C505.499 323.372 505.328 323.555 505.206 323.781C505.086 324.005 505.025 324.251 505.022 324.52V325.352C505.022 325.701 505.086 326 505.213 326.25C505.341 326.497 505.519 326.687 505.749 326.82C505.978 326.951 506.246 327.016 506.553 327.016C506.759 327.016 506.945 326.987 507.112 326.93C507.279 326.87 507.423 326.783 507.546 326.668C507.668 326.553 507.76 326.411 507.823 326.242L509.143 326.391C509.06 326.74 508.901 327.044 508.667 327.305C508.435 327.562 508.138 327.763 507.776 327.906C507.414 328.047 507 328.117 506.534 328.117ZM513.494 322V323.094H510.045V322H513.494ZM510.896 320.562H512.311V326.195C512.311 326.385 512.339 326.531 512.396 326.633C512.456 326.732 512.535 326.799 512.631 326.836C512.727 326.872 512.834 326.891 512.951 326.891C513.04 326.891 513.12 326.884 513.193 326.871C513.269 326.858 513.326 326.846 513.365 326.836L513.604 327.941C513.528 327.967 513.42 327.996 513.279 328.027C513.141 328.059 512.972 328.077 512.771 328.082C512.417 328.092 512.098 328.039 511.814 327.922C511.531 327.802 511.305 327.617 511.139 327.367C510.975 327.117 510.894 326.805 510.896 326.43V320.562ZM519.117 320V328H517.668V320H519.117ZM520.786 328V320H523.786C524.401 320 524.917 320.107 525.333 320.32C525.752 320.534 526.069 320.833 526.282 321.219C526.499 321.602 526.607 322.048 526.607 322.559C526.607 323.072 526.497 323.517 526.279 323.895C526.062 324.27 525.743 324.56 525.321 324.766C524.9 324.969 524.381 325.07 523.767 325.07H521.63V323.867H523.571C523.931 323.867 524.225 323.818 524.454 323.719C524.683 323.617 524.853 323.47 524.962 323.277C525.074 323.082 525.13 322.842 525.13 322.559C525.13 322.275 525.074 322.033 524.962 321.832C524.85 321.629 524.68 321.475 524.45 321.371C524.221 321.264 523.926 321.211 523.564 321.211H522.236V328H520.786ZM524.919 324.375L526.9 328H525.282L523.337 324.375H524.919ZM528.041 328V320H531.041C531.655 320 532.171 320.107 532.588 320.32C533.007 320.534 533.323 320.833 533.537 321.219C533.753 321.602 533.861 322.048 533.861 322.559C533.861 323.072 533.752 323.517 533.533 323.895C533.317 324.27 532.998 324.56 532.576 324.766C532.154 324.969 531.636 325.07 531.021 325.07H528.884V323.867H530.826C531.185 323.867 531.479 323.818 531.709 323.719C531.938 323.617 532.107 323.47 532.216 323.277C532.328 323.082 532.384 322.842 532.384 322.559C532.384 322.275 532.328 322.033 532.216 321.832C532.104 321.629 531.934 321.475 531.705 321.371C531.476 321.264 531.18 321.211 530.818 321.211H529.49V328H528.041ZM532.173 324.375L534.154 328H532.537L530.591 324.375H532.173Z" fill="#E3E5E8" fill-opacity="0.52"/>
<rect x="464.5" y="188.5" width="153" height="155" rx="12.6058" stroke="white" stroke-opacity="0.03" shape-rendering="crispEdges"/>
</g>
</g>
<defs>
<filter id="filter0_bd_6858_143588" x="265.416" y="159.704" width="223.168" height="225.168" filterUnits="userSpaceOnUse" color-interpolation-filters="sRGB">
<feFlood flood-opacity="0" result="BackgroundImageFix"/>
<feGaussianBlur in="BackgroundImageFix" stdDeviation="12.576"/>
<feComposite in2="SourceAlpha" operator="in" result="effect1_backgroundBlur_6858_143588"/>
<feColorMatrix in="SourceAlpha" type="matrix" values="0 0 0 0 0 0 0 0 0 0 0 0 0 0 0 0 0 0 127 0" result="hardAlpha"/>
<feMorphology radius="9.43198" operator="erode" in="SourceAlpha" result="effect2_dropShadow_6858_143588"/>
<feOffset dy="6.28799"/>
<feGaussianBlur stdDeviation="22.008"/>
<feComposite in2="hardAlpha" operator="out"/>
<feColorMatrix type="matrix" values="0 0 0 0 0.0820312 0 0 0 0 0.0875651 0 0 0 0 0.104167 0 0 0 0.2 0"/>
<feBlend mode="normal" in2="effect1_backgroundBlur_6858_143588" result="effect2_dropShadow_6858_143588"/>
<feBlend mode="normal" in="SourceGraphic" in2="effect2_dropShadow_6858_143588" result="shape"/>
</filter>
<filter id="filter1_bd_6858_143588" x="429.416" y="159.704" width="223.168" height="225.168" filterUnits="userSpaceOnUse" color-interpolation-filters="sRGB">
<feFlood flood-opacity="0" result="BackgroundImageFix"/>
<feGaussianBlur in="BackgroundImageFix" stdDeviation="12.576"/>
<feComposite in2="SourceAlpha" operator="in" result="effect1_backgroundBlur_6858_143588"/>
<feColorMatrix in="SourceAlpha" type="matrix" values="0 0 0 0 0 0 0 0 0 0 0 0 0 0 0 0 0 0 127 0" result="hardAlpha"/>
<feMorphology radius="9.43198" operator="erode" in="SourceAlpha" result="effect2_dropShadow_6858_143588"/>
<feOffset dy="6.28799"/>
<feGaussianBlur stdDeviation="22.008"/>
<feComposite in2="hardAlpha" operator="out"/>
<feColorMatrix type="matrix" values="0 0 0 0 0.0820312 0 0 0 0 0.0875651 0 0 0 0 0.104167 0 0 0 0.2 0"/>
<feBlend mode="normal" in2="effect1_backgroundBlur_6858_143588" result="effect2_dropShadow_6858_143588"/>
<feBlend mode="normal" in="SourceGraphic" in2="effect2_dropShadow_6858_143588" result="shape"/>
</filter>
<radialGradient id="paint0_radial_6858_143588" cx="0" cy="0" r="1" gradientUnits="userSpaceOnUse" gradientTransform="translate(314.172 336.423) rotate(90) scale(189.559 259.244)">
<stop offset="0.298618" stop-color="#22262F"/>
<stop offset="1" stop-color="#22262F" stop-opacity="0"/>
</radialGradient>
<radialGradient id="paint1_radial_6858_143588" cx="0" cy="0" r="1" gradientUnits="userSpaceOnUse" gradientTransform="translate(278.999 328.497) rotate(90) scale(227.278 278.503)">
<stop stop-color="#22262F"/>
<stop offset="1" stop-color="#22262F" stop-opacity="0"/>
</radialGradient>
<clipPath id="clip0_6858_143588">
<rect width="558" height="425" fill="white"/>
</clipPath>
<clipPath id="clip1_6858_143588">
<rect y="100.225" width="558" height="455.551" rx="11.9358" fill="white"/>
</clipPath>
</defs>
</svg>
