<svg width="155" height="28" viewBox="0 0 155 28" fill="none" xmlns="http://www.w3.org/2000/svg">
<path d="M37.2363 6.5407H39.6323V18.4878H45.9923V20.5176H37.2266L37.2363 6.5407Z" fill="white"/>
<path d="M52.0966 20.7109C51.1359 20.7109 50.2982 20.508 49.584 20.102C48.8697 19.6896 48.3146 19.0999 47.9185 18.3331C47.5289 17.5663 47.3341 16.6448 47.3341 15.5687C47.3341 14.5247 47.5224 13.6097 47.899 12.8235C48.2821 12.0374 48.8308 11.4252 49.545 10.987C50.2593 10.5488 51.1131 10.3297 52.1064 10.3297C53.0674 10.3297 53.9018 10.5392 54.6097 10.958C55.3176 11.3769 55.863 11.9762 56.2457 12.7559C56.6357 13.5356 56.8301 14.4732 56.8301 15.5687C56.8301 16.5804 56.6455 17.4729 56.275 18.2461C55.9113 19.0129 55.3758 19.6155 54.6679 20.0537C53.9667 20.4918 53.1096 20.7109 52.0966 20.7109ZM52.1064 18.9227C52.6522 18.9227 53.0998 18.7746 53.4507 18.4781C53.8077 18.1817 54.0706 17.7757 54.2393 17.2602C54.4148 16.7447 54.5027 16.1583 54.5027 15.501C54.5027 14.8888 54.4245 14.325 54.2686 13.8095C54.1195 13.294 53.8663 12.8815 53.5093 12.5722C53.1584 12.2565 52.6908 12.0986 52.1064 12.0986C51.5549 12.0986 51.0969 12.2436 50.7333 12.5336C50.3762 12.8171 50.1067 13.2166 49.9249 13.7321C49.7495 14.2412 49.6619 14.8308 49.6619 15.501C49.6619 16.1067 49.7398 16.6706 49.8956 17.1925C50.058 17.708 50.3177 18.1269 50.6748 18.4491C51.0319 18.7649 51.5091 18.9227 52.1064 18.9227Z" fill="white"/>
<path d="M66.8883 10.523L63.1775 20.5176H61.3075L57.5869 10.523H59.759L62.1743 17.5212H62.3009L64.707 10.523H66.8883Z" fill="white"/>
<path d="M70.0379 16.0616C70.0317 16.6287 70.1228 17.1313 70.311 17.5695C70.4993 18.0077 70.7782 18.3525 71.1486 18.6038C71.5185 18.8486 71.9763 18.9711 72.5217 18.9711C73.0804 18.9711 73.564 18.8486 73.973 18.6038C74.3886 18.3525 74.6644 17.9723 74.8007 17.4632H76.9728C76.856 18.1591 76.5766 18.7488 76.1352 19.2321C75.6938 19.7154 75.1578 20.0827 74.5281 20.334C73.9045 20.5853 73.2553 20.7109 72.5803 20.7109C71.6059 20.7109 70.7488 20.508 70.009 20.102C69.2749 19.6896 68.7003 19.1032 68.2851 18.3428C67.8761 17.5824 67.6713 16.677 67.6713 15.6267C67.6713 14.6021 67.8596 13.6935 68.2362 12.9009C68.6128 12.1018 69.155 11.4736 69.8629 11.016C70.577 10.5585 71.4341 10.3297 72.4342 10.3297C73.4276 10.3297 74.2621 10.5392 74.937 10.958C75.6187 11.3769 76.1321 11.9633 76.4758 12.7172C76.8267 13.4647 77.0021 14.3411 77.0021 15.3463V16.0616H70.0379ZM70.0379 14.6021H74.7616C74.7616 14.1188 74.6773 13.6838 74.5085 13.2972C74.3398 12.9041 74.08 12.5948 73.7296 12.3692C73.3854 12.1372 72.9502 12.0213 72.4244 12.0213C71.9048 12.0213 71.4665 12.1469 71.1095 12.3982C70.7524 12.6495 70.4829 12.975 70.3013 13.3745C70.1191 13.7676 70.0317 14.1768 70.0379 14.6021Z" fill="white"/>
<path d="M89.2591 6.34735C90.2911 6.34735 91.2068 6.55678 92.0053 6.97565C92.8042 7.38808 93.4468 7.94868 93.934 8.65755C94.4273 9.36636 94.7196 10.1557 94.8106 11.0257H92.3073C92.21 10.5102 92.0284 10.0494 91.7619 9.64344C91.5021 9.23749 91.158 8.91528 90.7294 8.67685C90.3009 8.43841 89.788 8.3192 89.1907 8.3192C88.4442 8.3192 87.8078 8.49641 87.282 8.85085C86.7624 9.1988 86.3632 9.75301 86.0839 10.5134C85.8112 11.2738 85.6749 12.2597 85.6749 13.4711C85.6749 15.3077 85.9799 16.6448 86.5901 17.4825C87.2007 18.3203 88.0676 18.7391 89.1907 18.7391C89.788 18.7391 90.3009 18.6102 90.7294 18.3525C91.158 18.0883 91.5021 17.7403 91.7619 17.3085C92.0284 16.8704 92.21 16.3935 92.3073 15.878H94.8106C94.7324 16.5095 94.5704 17.1152 94.3234 17.6952C94.0832 18.2751 93.7426 18.7939 93.3007 19.2514C92.8593 19.7025 92.3042 20.0601 91.6354 20.3243C90.9733 20.5821 90.181 20.7109 89.2591 20.7109C87.9668 20.7109 86.8566 20.4178 85.928 19.8313C85.0061 19.2385 84.2951 18.4008 83.795 17.3182C83.3016 16.2292 83.0547 14.9372 83.0547 13.4422C83.0547 11.9536 83.3016 10.6809 83.795 9.62409C84.2884 8.56733 84.9963 7.7586 85.9182 7.19795C86.8468 6.63092 87.9601 6.34735 89.2591 6.34735Z" fill="white"/>
<path d="M99.575 10.523V20.5176H97.296V10.523H99.575ZM99.6043 6.55035V8.77349H97.2574V6.55035H99.6043Z" fill="white"/>
<path d="M102.533 20.5176V10.523H104.802V12.6882C104.964 12.192 105.196 11.7699 105.494 11.422C105.799 11.0676 106.156 10.7969 106.566 10.61C106.975 10.4232 107.419 10.3297 107.899 10.3297C108.016 10.3297 108.13 10.3362 108.241 10.349C108.351 10.362 108.432 10.3845 108.484 10.4167V12.6689C108.412 12.6367 108.318 12.6141 108.201 12.6012C108.091 12.5883 107.994 12.5819 107.909 12.5819C107.423 12.5432 106.99 12.5625 106.614 12.6399C106.244 12.7172 105.929 12.8493 105.669 13.0362C105.416 13.2166 105.224 13.4486 105.095 13.7321C104.965 14.0092 104.9 14.3346 104.9 14.7084V20.5176H102.533Z" fill="white"/>
<path d="M114.34 10.3297C115.125 10.3297 115.817 10.4844 116.414 10.7937C117.012 11.103 117.489 11.5315 117.846 12.0793C118.209 12.627 118.427 13.2488 118.498 13.9448H116.472C116.427 13.6419 116.317 13.3552 116.142 13.0845C115.966 12.8075 115.729 12.5851 115.431 12.4176C115.132 12.2436 114.771 12.1566 114.349 12.1566C113.596 12.1566 112.982 12.4337 112.509 12.9879C112.041 13.5421 111.807 14.3926 111.807 15.5397C111.807 16.5965 112.031 17.4374 112.479 18.0625C112.927 18.6876 113.567 19.0001 114.398 19.0001C114.813 19.0001 115.167 18.9099 115.459 18.7294C115.758 18.5426 115.992 18.3138 116.161 18.0431C116.336 17.766 116.45 17.489 116.502 17.2119H118.469C118.411 17.8885 118.196 18.491 117.826 19.0194C117.463 19.5478 116.982 19.9635 116.385 20.2663C115.794 20.5628 115.112 20.7109 114.34 20.7109C113.418 20.7109 112.596 20.5112 111.875 20.1117C111.161 19.7057 110.599 19.1193 110.19 18.3525C109.781 17.5792 109.577 16.648 109.577 15.559C109.577 14.5215 109.769 13.6129 110.151 12.8332C110.535 12.047 111.083 11.4349 111.798 10.9967C112.512 10.552 113.359 10.3297 114.34 10.3297Z" fill="white"/>
<path d="M124.23 20.7109C123.736 20.7109 123.259 20.64 122.798 20.4983C122.343 20.3501 121.934 20.1375 121.571 19.8603C121.207 19.5768 120.918 19.2289 120.704 18.8164C120.49 18.404 120.382 17.9239 120.382 17.3762V10.523H122.759V17.1055C122.759 17.6468 122.931 18.0915 123.275 18.4394C123.626 18.7874 124.152 18.9614 124.853 18.9614C125.489 18.9614 125.999 18.7971 126.382 18.4684C126.765 18.1333 126.957 17.6533 126.957 17.0282V10.523H129.314V20.5176H127.493L127.23 18.5651C127.106 19.1129 126.889 19.5446 126.577 19.8603C126.272 20.1697 125.912 20.3887 125.496 20.5176C125.087 20.6465 124.665 20.7109 124.23 20.7109Z" fill="white"/>
<path d="M134.845 20.6626C134.196 20.6626 133.676 20.582 133.287 20.421C132.897 20.2599 132.605 20.044 132.41 19.7734C132.215 19.5027 132.088 19.1999 132.03 18.8648C131.972 18.5232 131.942 18.1753 131.942 17.8208V6.15405H134.26V17.5502C134.26 17.9819 134.348 18.317 134.523 18.5554C134.705 18.7939 134.998 18.9324 135.4 18.9711L135.907 18.9904V20.4693C135.731 20.5208 135.553 20.566 135.371 20.6046C135.189 20.6433 135.014 20.6626 134.845 20.6626Z" fill="white"/>
<path d="M140.788 20.7109C140.145 20.7109 139.568 20.595 139.055 20.363C138.548 20.1245 138.149 19.7862 137.856 19.348C137.571 18.9034 137.428 18.3653 137.428 17.7338C137.428 16.6319 137.828 15.8006 138.626 15.24C139.431 14.6794 140.714 14.3862 142.473 14.3604L143.973 14.3218V13.6451C143.973 13.1168 143.814 12.7043 143.496 12.4079C143.184 12.105 142.698 11.9568 142.035 11.9633C141.548 11.9697 141.1 12.0857 140.691 12.3112C140.288 12.5303 140.022 12.9009 139.892 13.4228H137.876C137.915 12.7398 138.113 12.1695 138.47 11.7119C138.834 11.248 139.33 10.9033 139.961 10.6777C140.59 10.4457 141.318 10.3297 142.142 10.3297C143.103 10.3297 143.885 10.4554 144.489 10.7067C145.093 10.958 145.538 11.3221 145.824 11.7989C146.109 12.2694 146.252 12.8397 146.252 13.5098V20.5176H144.256L144.071 18.7198C143.707 19.4737 143.246 19.9957 142.688 20.2856C142.136 20.5692 141.502 20.7109 140.788 20.7109ZM141.558 19.1161C141.85 19.1161 142.139 19.0645 142.424 18.9614C142.71 18.8519 142.97 18.7069 143.204 18.5264C143.437 18.3396 143.623 18.1333 143.759 17.9078C143.902 17.6823 143.973 17.4471 143.973 17.2022V15.6267L142.736 15.646C142.126 15.6524 141.593 15.7169 141.139 15.8393C140.684 15.9618 140.327 16.1583 140.068 16.4289C139.814 16.6931 139.688 17.0476 139.688 17.4922C139.688 18.0013 139.866 18.4008 140.223 18.6908C140.581 18.9743 141.026 19.1161 141.558 19.1161Z" fill="white"/>
<path d="M149.025 20.5176V10.523H151.294V12.6882C151.457 12.192 151.687 11.7699 151.986 11.422C152.291 11.0676 152.648 10.7969 153.057 10.61C153.466 10.4232 153.911 10.3297 154.392 10.3297C154.509 10.3297 154.622 10.3362 154.732 10.349C154.843 10.362 154.924 10.3845 154.976 10.4167V12.6689C154.905 12.6367 154.81 12.6141 154.693 12.6012C154.583 12.5883 154.486 12.5819 154.401 12.5819C153.914 12.5432 153.483 12.5625 153.106 12.6399C152.736 12.7172 152.421 12.8493 152.161 13.0362C151.908 13.2166 151.717 13.4486 151.586 13.7321C151.457 14.0092 151.392 14.3346 151.392 14.7084V20.5176H149.025Z" fill="white"/>
<path d="M9.78395 13.9926C9.78395 11.1577 12.0997 8.85957 14.9562 8.85957C17.8128 8.85957 20.1285 11.1577 20.1285 13.9926C20.1285 16.8276 17.8128 19.1257 14.9562 19.1257C12.0997 19.1257 9.78395 16.8276 9.78395 13.9926Z" fill="white"/>
<path fill-rule="evenodd" clip-rule="evenodd" d="M14.9632 1.13489C22.1226 1.13489 27.9265 6.89477 27.9265 13.9999C27.9265 21.1051 22.1226 26.865 14.9632 26.865C7.80384 26.865 2 21.1051 2 13.9999C2 6.89477 7.80384 1.13489 14.9632 1.13489ZM14.9562 6.05969C10.5415 6.05969 6.96269 9.6114 6.96269 13.9926C6.96269 18.374 10.5415 21.9256 14.9562 21.9256C19.371 21.9256 22.9497 18.3739 22.9497 13.9926C22.9497 9.6114 19.371 6.05969 14.9562 6.05969Z" fill="white"/>
</svg>
