<svg width="170" height="31" viewBox="0 0 198 59" fill="none" xmlns="http://www.w3.org/2000/svg">
<path fill-rule="evenodd" clip-rule="evenodd" d="M0.683594 53.5355C0.683594 57.0874 2.42264 58.8635 5.90072 58.8635C9.3788 58.8635 11.1178 57.0874 11.1178 53.5355V36.9054H25.6278C31.932 36.9054 36.7957 35.3313 40.2196 32.1829C43.6434 29.0344 45.3551 24.6617 45.3551 19.0646C45.3551 13.4673 43.6434 9.10809 40.2196 5.98658C36.7957 2.8651 31.932 1.30436 25.6278 1.30436H5.98215C2.44972 1.30436 0.683594 3.05347 0.683594 6.55169V53.5355ZM23.9975 28.7519H11.1178V9.4578H23.9975C31.497 9.4578 35.2468 12.66 35.2468 19.0644C35.2468 25.5228 31.497 28.7519 23.9975 28.7519Z" fill="white"/>
<path fill-rule="evenodd" clip-rule="evenodd" d="M43.3377 56.9261C44.1528 58.2177 45.5116 58.8635 47.4137 58.8635C48.8266 58.8635 49.9134 58.5136 50.6743 57.814C51.4351 57.1143 52.1687 55.9841 52.8753 54.4235L56.8696 45.059H84.9116L88.9874 54.4235C89.6396 55.9304 90.386 57.0471 91.229 57.7737C92.0721 58.5002 93.2542 58.8635 94.7753 58.8635C96.6229 58.8635 97.9269 58.2312 98.6875 56.9664C99.448 55.7016 99.3942 54.1273 98.5242 52.2438L76.9228 5.01776C76.2164 3.45702 75.3605 2.34029 74.3551 1.66754C73.3497 0.994819 72.2221 0.658447 70.9721 0.658447C69.6678 0.658447 68.513 0.994819 67.5076 1.66754C66.5022 2.34029 65.6462 3.45702 64.9398 5.01776L43.4192 52.2438C42.5497 54.0736 42.5225 55.6344 43.3377 56.9261ZM60.4564 36.8246L70.8092 12.5256H70.9722L81.3249 36.8246H60.4564Z" fill="white"/>
<path d="M124.386 58.8635C121.615 58.8635 119.631 57.5179 118.437 54.8271L97.1592 7.52033C96.291 5.47523 96.3305 3.8203 97.2829 2.55556C98.2336 1.29082 99.6328 0.658447 101.48 0.658447C103.057 0.658447 104.239 0.994819 105.027 1.66754C105.814 2.34029 106.479 3.34939 107.023 4.69485L124.55 44.9783L142.076 4.61412C142.674 3.32248 143.381 2.34029 144.195 1.66754C145.011 0.994819 146.152 0.658447 147.619 0.658447C149.357 0.658447 150.676 1.30427 151.573 2.59593C152.469 3.88757 152.455 5.52904 151.531 7.52033L130.256 54.8271C129.658 56.1725 128.91 57.1817 128.013 57.8544C127.117 58.5271 125.908 58.8635 124.386 58.8635Z" fill="white"/>
<path d="M164.188 58.2177C160.493 58.2177 158.644 56.3878 158.644 52.7281V6.79387C158.644 3.1342 160.493 1.30436 164.188 1.30436H193.29C196.115 1.30436 197.528 2.64983 197.528 5.34076C197.528 8.13927 196.115 9.53864 193.29 9.53864H168.671V25.1998H191.496C194.321 25.1998 195.735 26.5723 195.735 29.3169C195.735 32.0617 194.321 33.4342 191.496 33.4342H168.671V49.9834H193.29C196.115 49.9834 197.528 51.3558 197.528 54.1004C197.528 56.8452 196.115 58.2177 193.29 58.2177H164.188Z" fill="white"/>
</svg>
