<svg width="136" height="14" viewBox="0 0 136 14" fill="none" xmlns="http://www.w3.org/2000/svg">
<g clip-path="url(#clip0_6687_159020)">
<path fill-rule="evenodd" clip-rule="evenodd" d="M131.042 1.42646C129.322 1.87124 128.36 2.99273 128.36 4.55126C128.36 6.08247 128.997 6.77977 131.482 7.97063C133.14 8.76499 133.455 9.05931 133.302 9.66952C133.195 10.0958 132.631 10.3676 131.853 10.3676C131.364 10.3676 131.012 10.2616 130.336 9.91169C129.311 9.38144 128.985 9.4165 128.52 10.1069C128.112 10.7112 128.156 11.0666 128.703 11.6107C129.928 12.829 132.644 13.0649 134.333 12.0998C135.806 11.2585 136.375 9.39018 135.61 7.90313C135.174 7.05662 134.41 6.48808 132.723 5.75634C131.429 5.19504 130.98 4.85206 130.98 4.4245C130.98 3.60843 132.326 3.35953 133.581 3.94354C133.948 4.11434 134.414 4.2542 134.616 4.2542C135.097 4.2542 135.555 3.78946 135.668 3.18599C135.749 2.75481 135.719 2.67883 135.322 2.31502C134.434 1.50144 132.392 1.0775 131.042 1.42646ZM1.40953 1.50344C0.99295 1.67224 0.816286 1.97092 0.908735 2.34995C1.10524 3.15604 4.27371 11.7071 4.48855 12.0117C4.79584 12.4472 5.45496 12.6557 6.30222 12.5855C7.43756 12.4913 7.4695 12.4354 9.39671 7.18612C11.2141 2.23567 11.3035 1.85103 10.7087 1.53825C10.2823 1.3138 9.15928 1.40512 8.84488 1.68971C8.6908 1.82907 8.14783 3.2702 7.39127 5.54724C6.72704 7.54656 6.15425 9.23335 6.11844 9.29573C6.08251 9.35811 5.50873 7.79758 4.84312 5.82771C4.17764 3.85796 3.56081 2.11128 3.47261 1.94622C3.21248 1.46027 2.10321 1.22222 1.40953 1.50344ZM29.3607 1.46713C29.2235 1.49645 28.8778 1.60499 28.5923 1.70805C27.6839 2.03642 27.6764 2.08171 27.6764 7.23029C27.6764 10.261 27.7216 11.8274 27.8149 12.0323C28.1053 12.6697 29.2827 12.8291 29.884 12.3125C30.2264 12.0182 30.2349 11.9788 30.2757 10.5034L30.3173 8.99518H30.8008C31.2793 8.99518 31.2952 9.01102 32.3187 10.5157C32.8876 11.3518 33.5033 12.1457 33.687 12.2797C34.3574 12.7691 35.9235 12.6636 36.0969 12.1174C36.2078 11.7678 36.0081 11.3987 34.8524 9.81761C33.8721 8.47679 33.7888 8.31996 33.9964 8.20843C34.4912 7.94268 35.2612 7.00559 35.457 6.43093C35.6852 5.76158 35.7248 4.53654 35.5393 3.8899C35.2309 2.81457 34.2031 1.9285 32.8578 1.57805C32.1681 1.39839 30.002 1.32964 29.3607 1.46713ZM41.8993 1.60325C41.5967 1.75446 41.4196 1.95533 41.3223 2.258C41.1982 2.64427 40.6646 9.75349 40.6318 11.458C40.6249 11.8177 40.6883 12.1951 40.7727 12.2969C40.9725 12.5376 41.6594 12.6627 42.2122 12.559C42.9924 12.4126 43.0284 12.2627 43.2234 8.35165C43.3199 6.41696 43.4132 4.81963 43.4309 4.80204C43.4485 4.78444 43.85 5.87512 44.3231 7.22567C45.4001 10.3004 45.5868 10.7068 46.0265 10.9341C46.7553 11.311 47.7446 11.1084 48.11 10.5074C48.2323 10.3064 48.7513 8.95575 49.2636 7.50576C49.885 5.74636 50.2228 4.94352 50.2786 5.09211C50.3247 5.2145 50.4244 6.76031 50.5001 8.52707C50.5758 10.294 50.6991 11.8738 50.7738 12.0379C50.8486 12.202 51.0466 12.3986 51.2137 12.4748C51.8963 12.7857 53.0263 12.5165 53.1584 12.0116C53.2228 11.7652 52.6884 3.25373 52.5638 2.53922C52.5249 2.31652 52.3628 1.98278 52.2035 1.79763C51.956 1.50993 51.7984 1.45453 51.1174 1.4161C50.2196 1.36545 49.6335 1.59152 49.2284 2.14472C49.0981 2.3225 48.5282 3.71698 47.9618 5.24357L46.9321 8.01904L46.7299 7.47782C46.6186 7.18013 46.1532 5.92602 45.6957 4.69087C45.2384 3.45572 44.7592 2.29718 44.6309 2.11627C44.1531 1.44193 42.7498 1.17831 41.8993 1.60325ZM61.7926 1.57817C61.5831 1.6816 61.3161 1.92825 61.199 2.12638C60.7745 2.84501 57.6056 11.7492 57.685 11.9998C57.8237 12.4363 58.3084 12.6507 59.0049 12.5838C59.8157 12.5059 60.1245 12.1927 60.486 11.082L60.7608 10.2367L62.7656 10.271L64.7704 10.3052L65.0643 11.1768C65.4726 12.3876 65.6645 12.5509 66.6792 12.5509C67.3881 12.5509 67.5296 12.5116 67.7354 12.2573C67.9011 12.0527 67.9486 11.8638 67.8926 11.6335C67.7621 11.0979 64.6428 2.56617 64.4196 2.13449C64.3025 1.90792 64.0342 1.66363 63.7909 1.56195C63.2407 1.33214 62.2753 1.34 61.7926 1.57817ZM87.3535 1.55996C87.1356 1.65839 86.8719 1.86974 86.7673 2.02969C86.5092 2.42431 83.1957 11.531 83.1957 11.8459C83.1957 12.3867 83.8369 12.694 84.7187 12.5757C85.3917 12.4855 85.6287 12.2229 85.9814 11.1768L86.2753 10.3052L88.2802 10.271L90.2851 10.2367L90.4982 10.8948C90.9923 12.42 91.34 12.7121 92.5053 12.5809C93.1796 12.5048 93.4263 12.3119 93.4263 11.8605C93.4263 11.6692 92.664 9.41625 91.7321 6.85413C89.7697 1.45765 89.7845 1.48273 88.5331 1.4201C88.0403 1.39552 87.6026 1.44729 87.3535 1.55996ZM99.3716 1.55696C99.0388 1.65016 98.6178 1.87535 98.4359 2.05738L98.1049 2.38813L98.0678 7.02418C98.0422 10.2275 98.0738 11.7639 98.1699 11.9957C98.5074 12.8105 100.158 12.836 100.524 12.0323C100.6 11.865 100.663 11.1133 100.663 10.3617V8.99518H101.156C101.648 8.99518 101.655 9.00179 102.685 10.5157C103.254 11.3518 103.869 12.1457 104.053 12.2797C104.724 12.7691 106.29 12.6636 106.463 12.1174C106.573 11.7708 106.378 11.4046 105.241 9.82161L104.178 8.34005L104.694 7.94593C104.978 7.72921 105.378 7.28231 105.581 6.95294C105.902 6.43443 105.959 6.20511 106.005 5.24295C106.053 4.23224 106.028 4.07005 105.724 3.44961C105.34 2.6641 104.688 2.09556 103.747 1.72564C102.91 1.39639 100.302 1.29596 99.3716 1.55696ZM112.265 1.59514C111.965 1.75072 111.786 1.9577 111.691 2.258C111.515 2.81357 110.945 11.5673 111.056 12.0048C111.164 12.4275 111.732 12.6674 112.411 12.5765C113.403 12.4434 113.4 12.4543 113.591 8.53855C113.684 6.62818 113.775 4.98756 113.793 4.89261C113.81 4.79779 114.269 5.9768 114.812 7.51263C115.356 9.04858 115.878 10.4258 115.973 10.5733C116.369 11.1883 117.733 11.2903 118.31 10.7481C118.504 10.5659 118.92 9.56023 119.568 7.70813C120.101 6.1859 120.573 4.89823 120.618 4.8467C120.663 4.79505 120.768 6.33898 120.853 8.27767C120.985 11.3335 121.036 11.8439 121.232 12.1142C121.671 12.717 123.057 12.7668 123.432 12.1933C123.598 11.9406 123.584 11.4162 123.309 7.36466C123.138 4.86479 122.969 2.64589 122.933 2.43392C122.821 1.78727 122.357 1.46501 121.463 1.41473C120.59 1.3657 119.996 1.59651 119.599 2.13885C119.471 2.31352 118.952 3.57674 118.447 4.94601C117.941 6.31528 117.477 7.5679 117.415 7.72946C117.321 7.97662 117.149 7.60033 116.33 5.35897C115.278 2.48083 115.056 2.02445 114.551 1.69345C114.055 1.36857 112.807 1.3148 112.265 1.59514ZM16.3516 1.59289C16.2644 1.62808 16.1099 1.81734 16.0085 2.01359C15.8554 2.30965 15.824 3.15791 15.824 6.99898C15.824 11.8585 15.8605 12.2074 16.391 12.4111C16.5021 12.4536 17.8953 12.4885 19.4869 12.4885C22.6731 12.4885 22.8412 12.4527 22.9978 11.7402C23.1153 11.2047 22.8507 10.5014 22.4784 10.3598C22.3091 10.2955 21.304 10.2428 20.2449 10.2428H18.3192V9.11994V7.99708H19.9243C21.3592 7.99708 21.5643 7.96963 21.8581 7.73845C22.3101 7.383 22.3323 6.43056 21.8982 6.02259C21.6318 5.77244 21.4816 5.75135 19.9643 5.75135H18.3192V4.75325V3.75515H20.321C22.2802 3.75515 22.3295 3.74866 22.6291 3.44886C23.024 3.05411 23.0461 2.30753 22.6768 1.83818L22.4183 1.50943L19.4642 1.51928C17.8395 1.52465 16.4388 1.55783 16.3516 1.59289ZM73.521 1.81572L73.2147 2.12189V7.09879C73.2147 11.8828 73.2242 12.0842 73.4592 12.2968C73.7717 12.5796 74.7262 12.6893 75.1927 12.4961C75.7167 12.2791 75.8348 11.889 75.8348 10.3746V9.02088L77.3909 8.97684C78.8126 8.93654 78.9715 8.90822 79.2312 8.64859C79.4519 8.42776 79.5153 8.22365 79.5153 7.73308C79.5153 6.7396 79.294 6.62469 77.3804 6.62469H75.8348V5.18992V3.75515H77.6438C79.8012 3.75515 79.9519 3.68179 79.9519 2.63229C79.9519 2.17478 79.8854 1.94198 79.7024 1.75895C79.4676 1.52415 79.2866 1.50943 76.6401 1.50943H73.8272L73.521 1.81572ZM30.1717 5.2523V6.87422H30.8808C32.4853 6.87422 33.4824 5.69471 32.8816 4.50747C32.5846 3.92046 31.9711 3.63039 31.0265 3.63039H30.1717V5.2523ZM100.538 5.2523V6.87422H101.247C102.851 6.87422 103.848 5.69471 103.248 4.50747C102.951 3.92046 102.337 3.63039 101.393 3.63039H100.538V5.2523ZM62.125 5.97992C61.8239 6.91788 61.5526 7.75541 61.5219 7.84113C61.4797 7.95928 61.774 7.99708 62.7377 7.99708C63.7022 7.99708 63.9952 7.9594 63.9516 7.84113C63.9201 7.75541 63.6544 6.95531 63.3612 6.06326C63.0682 5.17121 62.7932 4.40392 62.7503 4.35801C62.7074 4.31222 62.426 5.04208 62.125 5.97992ZM87.6409 6.04592C87.3233 7.03653 87.0634 7.8808 87.0634 7.9221C87.0634 7.96327 87.6208 7.99708 88.3022 7.99708H89.5409L88.9288 6.17006C88.5922 5.16522 88.2947 4.32108 88.2676 4.294C88.2406 4.26693 87.9586 5.0553 87.6409 6.04592Z" fill="white"/>
</g>
<defs>
<clipPath id="clip0_6687_159020">
<rect width="135.9" height="12.6" fill="white" transform="translate(0.0507812 0.699951)"/>
</clipPath>
</defs>
</svg>
